<?xml version="1.0" standalone="no"?>
<!DOCTYPE svg PUBLIC "-//W3C//DTD SVG 20010904//EN"
 "http://www.w3.org/TR/2001/REC-SVG-20010904/DTD/svg10.dtd">
<svg version="1.0" xmlns="http://www.w3.org/2000/svg"
 width="271.000000pt" height="271.000000pt" viewBox="0 0 271.000000 271.000000"
 preserveAspectRatio="xMidYMid meet">
<metadata>
Created by potrace 1.11, written by Peter Selinger 2001-2013
</metadata>
<g transform="translate(0.000000,271.000000) scale(0.100000,-0.100000)"
fill="#000000" stroke="none">
<path d="M337 1954 c-4 -4 -7 -227 -7 -496 l0 -488 29 0 c26 0 35 12 112 143
265 451 477 832 467 838 -16 10 -51 2 -63 -15 -5 -7 -116 -200 -245 -429
l-235 -415 -5 432 c-5 425 -5 431 -26 434 -11 1 -23 -1 -27 -4z"/>
<path d="M1715 1952 c-121 -14 -280 -85 -370 -165 -54 -47 -145 -159 -145
-176 0 -5 11 -13 25 -19 23 -11 27 -9 52 31 75 120 236 227 392 262 304 66
635 -109 741 -392 30 -81 35 -116 35 -243 -1 -134 -22 -211 -85 -309 -132
-203 -339 -313 -577 -305 -81 3 -190 27 -244 55 l-36 18 -12 -25 c-6 -14 -11
-26 -11 -28 0 -2 24 -13 53 -25 178 -72 405 -67 574 13 89 43 131 73 206 149
139 142 194 274 194 468 1 117 -15 198 -57 286 -114 245 -351 401 -618 407
-48 1 -100 0 -117 -2z"/>
<path d="M1512 1358 l-22 -22 72 -73 71 -72 -74 -71 -74 -71 27 -24 28 -24 95
91 c52 50 95 95 95 101 0 9 -180 187 -190 187 -3 0 -16 -10 -28 -22z"/>
<path d="M572 1190 c-6 -11 -12 -25 -12 -32 1 -7 76 -139 169 -293 l167 -280
37 -3 37 -3 -100 168 c-55 92 -104 175 -109 183 -5 8 -45 75 -88 147 -43 73
-80 133 -83 133 -3 0 -11 -9 -18 -20z"/>
<path d="M1780 1040 l0 -30 160 0 160 0 0 30 0 30 -160 0 -160 0 0 -30z"/>
</g>
</svg>
