<svg width="231.40621381392046" height="221.09375" viewBox="0 0 302.9550488599349 289.45405886005165" ><defs id="SvgjsDefs1667"></defs><g id="SvgjsG1668" featurekey="7KWit6-0" transform="matrix(1.5673277424637295,0,0,1.5673277424637295,80.94509658936371,56.0818005951378)" fill="#132a3a"><path xmlns="http://www.w3.org/2000/svg" d="M10.251,34.784c-0.163,1.38,2.384,2.611,2.084,5.423c-0.303,2.811,0.1,6.225,3.412,7.531  c3.314,1.307,7.533-1.404,8.336-3.212c0.804-1.808,0.584,0.662,0.904,1.406c2.812,6.526,8.836,7.131,11.045,6.428  c2.211-0.705,1.308,5.32,0,7.531c-1.303,2.209-3.313,8.232-5.12,11.146c-1.718,2.764-7.777,15.212-8.384,16.46h56.308  c-5.104-12.67-9.587-17.347-10.432-18.067c-4.019-3.414-11.047-2.242-11.685-2.242c-0.637,0,1.907-5.037,2.478-6.158  c3.381-6.656,10.52-8.041,13.418-8.328l0,0h0.002c0.687-0.068,1.138-0.075,1.24-0.075c0.035,0,0.067,0.003,0.102,0.005  c1.661-0.16,4.32-0.689,4.755-2.441c0.001-0.002-0.002-0.004-0.001-0.008c0.04-0.285,0.066-0.535,0.08-0.76c0-0.001,0-0.004,0-0.005  c0.093-1.573-0.439-1.815-0.878-3.133c-0.502-1.507-0.017-1.349,0.446-2.06c0.651-1.005,0.351-1.305-0.051-2.209  c-0.402-0.904,0.547-0.673,0.702-1.607c0.151-0.904-0.702-1.908-1.104-2.812c-0.401-0.904,0.402-1.305,1.105-2.009  c0.703-0.702,1.506-2.007,1.405-2.71s-5.724-5.824-6.728-7.03c-1.004-1.205,0.117-2.713,0-3.715  c-0.804-6.828-7.029-12.955-7.633-13.356c-0.602-0.402-1.007-1.402-1.808-2.008c-3.313-2.511-6.935-3.676-9.038-3.917  c-29.726-3.414-34.244,19.08-33.944,20.888c0.301,1.808-0.815,0.712-1.808,0.904c-6.226,1.205-7.33,4.222-8.133,5.829  C10.524,32.079,10.405,33.466,10.251,34.784z"></path></g><g id="SvgjsG1669" featurekey="ewgXDI-0" transform="matrix(5.625780424866225,0,0,5.625780424866225,6.026350819352267,156.2355552217183)" fill="#ffffff"><path d="M4.68 17.84 l-0.02 0 c0 0.04 0.02 0.02 0.02 0 c0.04 0.02 0.08 -0.02 0.04 -0.04 c0.1 -0.12 0.64 -0.22 0.84 -0.48 c0.02 0.04 0.06 0.1 0.12 0.02 c0.44 -0.32 1 -0.54 1.5 -0.86 c0.16 -0.02 0.32 -0.16 0.46 -0.26 c-0.08 -0.02 -0.2 0.12 -0.34 0.14 c0.12 -0.14 0.32 -0.2 0.5 -0.3 c0 0.32 -0.4 0.46 -0.56 0.7 c-1.02 0.42 -1.82 1.06 -2.84 1.46 c-0.02 0.02 -0.02 0.04 -0.02 0.08 c-0.34 0.04 -0.94 0.18 -1.34 0.34 c0.2 -0.02 0.42 0.02 0.62 -0.08 c0.04 0.12 -0.28 0.1 -0.32 0.22 c0.14 -0.04 0.28 -0.08 0.38 -0.14 c0 0.1 -0.32 0.18 -0.4 0.22 c0.14 0.08 0.28 -0.14 0.38 -0.08 c-0.02 0.04 -0.06 0.04 -0.02 0.1 c0.22 0 0.32 -0.2 0.48 -0.18 c0.14 -0.2 0.84 -0.26 0.98 -0.56 c0.24 -0.04 0.38 -0.22 0.62 -0.3 c0 -0.02 -0.02 -0.02 -0.06 -0.02 c0.42 -0.24 0.84 -0.5 1.32 -0.7 c-0.2 0.16 -0.44 0.28 -0.66 0.44 c0.02 0.02 0.02 0.06 0.06 0.04 c-0.02 0.04 -0.14 0.08 -0.08 0 c-0.86 0.7 -1.96 1.12 -3.02 1.68 c-0.74 0.22 -1.88 0.62 -2.62 0.1 c-0.14 -0.14 -0.2 -0.38 -0.34 -0.52 c-0.28 1.38 -0.26 3 -0.52 4.28 c-0.2 0.14 -0.18 0.48 -0.46 0.54 c-0.14 -0.08 -0.28 -0.06 -0.42 -0.18 c-0.14 -0.92 0.24 -1.88 0.18 -2.78 c0.16 -0.86 0.28 -1.78 0.38 -2.76 c-0.12 0.06 -0.22 0 -0.4 -0.02 c0.04 -0.4 0.36 -0.5 0.52 -0.76 c0.1 -0.96 0.28 -1.8 0.44 -2.62 c0.04 -0.04 0.12 -0.02 0.14 -0.06 c0.02 -0.1 0.04 -0.18 0.06 -0.28 c0.1 -0.22 0.08 -0.46 0.16 -0.8 c-0.12 0.18 -0.18 0.6 -0.16 0.8 c-0.08 0.04 -0.1 0.14 -0.1 0.24 c-0.12 -0.06 -0.02 -0.32 0.04 -0.4 c0.08 -0.6 0.18 -1.2 0.42 -1.68 c-0.02 0.14 -0.1 0.32 -0.1 0.5 c0.24 -0.76 0.38 -1.5 0.64 -2.26 c-0.2 0.28 -0.22 0.64 -0.36 1 c0 -0.4 0.2 -1.02 0.44 -1.38 c-0.02 0.12 -0.06 0.2 -0.08 0.34 c0.12 -0.18 0.16 -0.54 0.24 -0.82 c-0.12 0.06 -0.02 0.34 -0.18 0.38 c0.08 -0.18 0.06 -0.48 0.24 -0.58 c0 0.02 -0.02 0.04 -0.04 0.06 c0.16 -0.18 0.24 -0.42 0.3 -0.68 c-0.08 0.06 -0.1 0.16 -0.12 0.26 c-0.08 -0.18 0.06 -0.36 0.16 -0.46 c0.02 0.08 -0.06 0.06 -0.04 0.16 c0.18 -0.26 0.22 -0.64 0.4 -0.9 c0 -0.04 -0.04 -0.04 -0.06 -0.02 c-0.04 -0.08 0.2 -0.12 0.06 -0.16 c0.12 -0.06 0.14 -0.22 0.22 -0.32 c-0.1 -0.02 -0.04 0.12 -0.14 0.12 c0.04 -0.14 0.1 -0.28 0.22 -0.36 c-0.02 0.06 -0.06 0.1 -0.06 0.16 c0.32 -0.62 0.84 -1.5 1.3 -2.1 c0.3 -0.4 0.8 -0.74 1.36 -0.46 c0 0.12 0.18 0.08 0.24 0.12 c0.3 0.4 0.32 1.32 0.2 1.8 c0 0.18 0.1 0.56 -0.1 0.64 c0.12 0.22 -0.08 0.48 -0.14 0.76 c0 0.04 0.06 0 0.08 0.04 c-0.24 1 -0.36 2.1 -0.9 2.74 c-0.04 0.14 0.04 0.18 0.02 0.26 c0 0.08 -0.04 0.14 -0.14 0.14 c-0.02 0.54 -0.22 0.92 -0.48 1.26 c0.06 0.1 0 0.18 0 0.3 c-0.08 0.18 -0.38 0.38 -0.3 0.56 c-0.3 0.5 -0.56 0.92 -0.88 1.38 c-0.02 0.06 0 0.16 -0.04 0.2 c-0.06 0.02 -0.06 -0.04 -0.12 -0.02 c0.02 0.06 0.02 0.1 0 0.16 c-0.1 0 -0.14 0.12 -0.2 0.08 c-0.22 0.64 -0.82 0.98 -1.16 1.6 c-0.28 0.08 -0.38 0.34 -0.56 0.54 c0.28 0.06 0.48 -0.34 0.76 -0.42 c0.24 -0.18 0.52 -0.34 0.78 -0.5 c0.5 -0.34 0.96 -0.74 1.66 -0.88 c0.12 0.04 0.18 0.14 0.2 0.28 c-0.06 0.12 -0.14 0.22 -0.16 0.38 c-1.16 0.58 -2.1 1.38 -3.14 2.06 c-0.04 0.22 0.16 0.2 0.18 0.34 c1.16 0.34 2.38 -0.24 3.4 -0.7 c0.04 0 0.04 0.02 0.02 0.06 c0.14 -0.18 0.3 -0.08 0.4 -0.24 c0.02 0 0.04 0.02 0.02 0.04 z M3.48 11.44 c0.66 -1.98 1.46 -3.84 1.3 -6.18 c-0.02 0 -0.02 -0.02 -0.06 -0.02 c-1.04 1 -1.62 2.5 -2.28 3.8 c-0.42 1.32 -0.84 2.74 -1.24 4.14 c-0.12 0.72 -0.28 1.84 -0.44 2.74 c1.16 -1.18 1.98 -2.8 2.72 -4.48 z M4.92 6.880000000000001 c0.08 0.08 0.04 -0.08 0 0 l0 0 z M4.92 6.9399999999999995 c0.04 0.1 0.04 -0.08 0 0 l0 0 z M5.04 7.1 c0 -0.04 -0.02 -0.06 -0.04 -0.08 c0 0.04 0 0.08 0.04 0.08 z M4.66 9.06 c0.04 -0.28 0.22 -0.66 0.18 -0.96 c0 0.04 -0.02 0.08 0.04 0.08 c-0.08 -0.16 0.02 -0.12 0.04 -0.28 c-0.06 -0.02 -0.08 0.12 -0.12 0.04 c0.08 -0.28 0.12 -0.58 0.22 -0.78 c-0.32 0.56 -0.34 1.3 -0.36 1.9 z M4.9 7.74 c0.08 -0.02 0.08 -0.14 0.02 -0.16 c0.02 0.08 -0.02 0.08 -0.02 0.16 z M2.52 7.699999999999999 c0.04 0.08 0.04 -0.1 0 0 l0 0 z M2.48 8.14 c0.02 0.02 0 0 0 0 l0 0 z M0.7 16.28 c0.02 0.1 -0.06 0.12 -0.04 0.22 c1.88 -1.84 3.1 -4.7 3.78 -7.46 c-0.88 2.76 -1.9 5.28 -3.74 7.24 z M4.6 9.32 c0 -0.06 0.08 -0.16 0.02 -0.22 c0.02 0.1 -0.1 0.16 -0.02 0.22 z M1.68 10 c0.08 0.04 0.08 -0.1 0.04 -0.1 c-0.02 0.04 -0.04 0.04 -0.04 0.1 z M1.66 10.16 c0.02 -0.02 0.06 -0.08 0 -0.1 c0 0.02 -0.06 0.1 0 0.1 z M1.6 10.26 c0.06 0.1 0.02 -0.08 0 0 l0 0 z M1.54 10.4 c0.06 0 0.08 -0.02 0.08 -0.06 c-0.06 -0.02 -0.06 0.04 -0.08 0.06 z M1.56 10.6 c0 -0.04 -0.02 -0.06 -0.04 -0.08 c0 0.04 0 0.08 0.04 0.08 z M1.44 10.66 c0.04 0.1 0.04 -0.08 0 0 l0 0 z M3.72 11.86 c0.04 0.1 0.04 -0.08 0 0 l0 0 z M1.16 11.96 c0 -0.04 -0.02 -0.06 -0.04 -0.06 c0 0.02 -0.02 0.08 0.04 0.06 z M1.02 12.34 c-0.02 -0.08 0.1 -0.18 0.02 -0.26 c-0.02 0.12 -0.1 0.2 -0.02 0.26 z M3.48 12.34 c0.02 0.02 0 0 0 0 l0 0 z M3.42 12.54 c0.08 0.08 0.04 -0.08 0 0 l0 0 z M3.36 12.780000000000001 c0.1 -0.02 0.1 -0.18 -0.02 -0.16 c0.02 0.08 0.08 0.08 0.02 0.16 z M0.48 13 c0.08 0.02 0.06 -0.06 0.08 -0.08 c-0.06 0 -0.08 0.02 -0.08 0.08 z M3.28 13.04 c0 0.02 -0.02 0 0 0 l0 0 z M0.46 13.36 c0 -0.1 0.1 -0.24 0.02 -0.32 c0 0.1 -0.1 0.28 -0.02 0.32 z M3.2 13.059999999999999 c0.02 0.1 0.02 -0.08 0 0 l0 0 z M0.8 13.42 c0.02 0 0.06 -0.1 -0.02 -0.08 c0 0.02 -0.02 0.08 0.02 0.08 z M2.96 13.6 c0.08 0.04 0.08 -0.12 0 -0.08 l0 0.08 z M0.64 13.96 c0.1 -0.04 0.14 -0.3 0.06 -0.32 c0 0.1 -0.04 0.2 -0.06 0.32 z M2.84 13.82 c-0.04 0.1 0.06 -0.12 0 0 l0 0 z M2.76 13.96 c0.08 0.04 0.08 -0.12 0 -0.08 l0 0.08 z M2.52 14.36 c0.06 -0.02 0.1 -0.06 0.12 -0.12 c-0.1 -0.02 -0.16 0.06 -0.12 0.12 z M2.34 14.8 c0.08 -0.06 -0.08 -0.1 0 -0.18 c-0.12 0 -0.06 0.16 0 0.18 z M2.36 14.68 c0.02 0.02 0 -0.02 0 0 l0 0 z M2.2 14.98 c0 0 0 -0.02 0.02 -0.02 c0 -0.02 -0.02 -0.06 -0.06 -0.04 c0.02 0.02 0 0.06 0.04 0.06 z M-0.02 15.5 c0.06 0.12 0.06 -0.1 0 0 l0 0 z M1.66 15.64 c0.02 -0.08 0.04 -0.04 0.1 -0.02 c-0.02 -0.08 0.04 -0.08 0.02 -0.12 c-0.06 0 -0.16 0.1 -0.12 0.14 z M-0.02 15.64 c0.04 0.1 0.04 -0.1 0 0 l0 0 z M7.66 16.22 c0.04 0 0.06 -0.02 0.08 -0.06 c-0.04 0 -0.06 0.02 -0.08 0.06 z M0.72 16.72 c0.06 0 0.08 -0.04 0.12 0 c-0.02 -0.1 0.08 -0.08 0.08 -0.18 c-0.1 0.04 -0.16 0.08 -0.2 0.18 z M7.26 16.66 c0 -0.02 0.06 -0.02 0.04 -0.06 c-0.04 -0.02 -0.1 0.06 -0.04 0.06 z M7.16 16.740000000000002 c0 -0.02 0.04 -0.06 0 -0.08 c0 0.04 -0.04 0.06 0 0.08 z M6.96 16.82 c0.04 0 0.06 -0.02 0.08 -0.06 c-0.04 0 -0.06 0.02 -0.08 0.06 z M-0.54 17.740000000000002 l0.1 0 l0 -0.06 c-0.06 0 -0.08 0.04 -0.1 0.06 z M3.22 18.82 c0.04 0 0.06 -0.02 0.08 -0.04 c-0.04 0 -0.08 0 -0.08 0.04 z M3.16 18.82 c0.02 0.1 0.02 -0.08 0 0 l0 0 z M3.3 19.02 c0.1 -0.08 0.36 0 0.34 -0.2 c-0.12 0.08 -0.3 0.08 -0.34 0.2 z M3.04 19.12 c0.12 -0.02 0.18 0 0.2 -0.12 c-0.08 0.02 -0.2 0.02 -0.2 0.12 z M3 19.14 c0 -0.04 -0.02 -0.06 -0.04 -0.08 c-0.04 0.04 -0.04 0.1 0.04 0.08 z M2.74 19.16 c-0.06 0.08 0.08 -0.06 0 0 l0 0 z M2.08 7.98 c-0.02 0.04 0 0.08 -0.06 0.08 l0 -0.06 c0.02 0 0.04 0 0.02 -0.02 l0.04 0 z M0.76 11.72 c0.04 0.12 -0.04 0.3 -0.08 0.38 c-0.04 -0.14 0.04 -0.26 0.08 -0.38 z M7.18 16.48 c-0.06 -0.02 0.02 -0.08 0.02 -0.1 c0.08 0.02 -0.02 0.06 -0.02 0.1 z M6.36 16.9 c0.02 -0.06 0.1 0.04 0 0 l0 0 z M7.04 16.9 c-0.04 0.08 -0.14 0.12 -0.24 0.16 c0.06 -0.08 0.14 -0.12 0.24 -0.16 z M6.06 17.08 l0 0 c0.02 0.02 -0.02 -0.02 0 0 z M7.02 17.12 l0 0 c0.04 -0.02 0 -0.02 0 0 z M6.6 17.14 c0.06 -0.08 0.04 0.08 0 0 l0 0 z M6.48 17.18 l0.06 0 l0 0.04 l-0.06 0 l0 -0.04 z M6.42 17.22 c0.08 -0.02 0.02 0.08 0.1 0.08 c-0.02 0.04 -0.14 0 -0.1 -0.08 z M5.68 17.34 c-0.06 0 -0.04 -0.1 0.02 -0.08 c0 0.04 -0.04 0.04 -0.02 0.08 z M6.28 17.36 l0 0 c0 0.02 -0.02 0 0 0 z M6.68 17.38 l0.04 0 l0 0.06 l-0.04 0 l0 -0.06 z M5.38 17.44 c0 -0.08 0.1 0.02 0 0 l0 0 z M6.46 17.56 c0.02 -0.04 0.04 -0.06 0.1 -0.06 c0 0.06 -0.04 0.06 -0.1 0.06 z M6 17.58 c0.06 -0.1 0.04 0.08 0 0 l0 0 z M6.44 17.58 c0 -0.02 0 -0.02 0.02 -0.02 c0 0.02 0 0.02 -0.02 0.02 z M5.96 17.6 c0.02 -0.1 0.02 0.1 0 0 l0 0 z M6.42 17.6 c0 -0.02 0 -0.02 0.02 -0.02 c0 0.02 0 0.02 -0.02 0.02 z M5.6 17.78 c0 0.04 -0.06 0.02 -0.08 0.06 c-0.06 -0.02 0.04 -0.08 0.08 -0.06 z M5.7 17.82 c0 0.08 -0.1 -0.02 0 0 l0 0 z M5.58 17.9 l0 0 c0.02 0 -0.02 -0.02 0 0 z M5.36 17.92 l0 0 c0.02 0.02 0 -0.02 0 0 z M5.16 18.02 c0.02 -0.08 0.1 0.02 0 0 l0 0 z M5.12 18.04 l0 0 c0.02 0.02 0 -0.02 0 0 z M5 18.06 l0.04 0 l0 0.04 l-0.04 0 l0 -0.04 z M5.14 18.14 c-0.06 -0.02 0.02 -0.1 0 0 l0 0 z M4.92 18.14 l0 0 c0.02 0 0 -0.02 0 0 z M4.86 18.16 c0.02 -0.1 0.02 0.1 0 0 l0 0 z M4.78 18.18 c0.04 -0.1 0.04 0.1 0 0 l0 0 z M4.68 18.26 c0.04 -0.1 0.04 0.08 0 0 l0 0 z M4.62 18.28 l0 0 c0.02 0.02 -0.02 -0.02 0 0 z M4.42 18.38 c0 0.02 -0.02 0.04 -0.06 0.04 c-0.02 -0.06 0.02 -0.04 0.06 -0.04 z M3.84 18.4 c0.08 0.02 -0.02 0.04 -0.02 0.06 c-0.08 -0.02 0.04 -0.04 0.02 -0.06 z M3.92 18.5 c-0.02 0.02 -0.06 0.04 -0.1 0.04 c0.02 -0.04 0.06 -0.1 0.1 -0.04 z M4.08 18.52 c0.06 -0.1 0.04 0.08 0 0 l0 0 z M3.46 18.56 c0.06 -0.08 0.04 0.08 0 0 l0 0 z M3.72 18.54 l0.06 0 l0 0.04 l-0.06 0 l0 -0.04 z M3.92 18.58 c0.02 0.08 -0.06 0.06 -0.1 0.06 c0.02 -0.04 0.06 -0.04 0.1 -0.06 z M3.94 18.68 c0.02 -0.04 0.08 -0.06 0.14 -0.06 c-0.02 0.04 -0.08 0.06 -0.14 0.06 z M4.12 18.68 l0 0 c0 0.02 -0.02 0 0 0 z M3.94 18.68 c-0.06 0.04 -0.12 0.08 -0.18 0.1 c0 -0.08 0.1 -0.1 0.18 -0.1 z M12.14 18.12 c0.02 0 0.02 -0.02 0.02 -0.02 c-0.02 -0.04 -0.02 0 -0.02 0.02 c-0.08 0.06 -0.24 0.1 -0.22 0.18 c-0.08 0.1 -0.2 0.1 -0.32 0.18 c-0.82 0.52 -1.86 2.24 -3.02 1.78 c-0.04 -0.14 -0.12 -0.24 -0.16 -0.36 c0 -0.1 -0.08 0.04 -0.08 -0.04 c-0.06 -0.1 -0.1 -0.2 -0.16 -0.3 c0.28 -1.4 1.04 -2.32 1.78 -3.3 c0.28 -0.22 0.62 -0.48 1.08 -0.48 c0.44 0.1 0.96 0.24 1.04 0.78 c0.04 0.3 -0.08 0.5 -0.2 0.7 c0.16 0 0.34 -0.16 0.6 -0.12 c0.36 0.14 0.42 0.88 0.16 1.14 c0.18 0.3 -0.18 0.74 -0.04 1.08 c2 -0.32 3.12 -1.74 4.34 -2.92 c-0.14 1.06 -1.22 1.6 -1.92 2.32 c-0.46 0.26 -0.8 0.5 -1.3 0.72 c0.04 0.06 0.12 -0.06 0.2 -0.04 c-0.02 0.06 -0.1 0.04 -0.1 0.1 c0.82 -0.28 1.34 -0.96 2.04 -1.28 c-0.02 -0.06 -0.08 0.02 -0.12 0 c0.04 -0.06 0.1 -0.18 0.14 -0.04 c0.06 -0.14 0.28 -0.38 0.56 -0.44 c-0.86 1.04 -1.96 1.74 -3.28 2.36 c-0.18 0.02 -0.32 -0.04 -0.5 -0.04 c-0.3 -0.1 -0.4 -0.26 -0.54 -0.52 c-0.02 -0.4 -0.04 -1.02 0.02 -1.46 z M8.96 19.5 c1.02 -0.5 1.66 -1.34 2.48 -2.04 c-0.16 -0.14 -0.06 -0.62 -0.1 -0.8 c-1.32 0.42 -1.8 1.68 -2.38 2.84 z M16.7 16.9 c0.02 0.08 0.06 -0.1 0 0 l0 0 z M16.58 17.04 c0.04 0.04 0.08 -0.02 0.1 -0.08 c-0.06 0.02 -0.12 0.02 -0.1 0.08 z M14.16 18.94 c-0.02 -0.04 -0.06 -0.04 -0.06 0 c-0.06 -0.02 -0.08 0.02 -0.1 0.06 c0.06 0 0.08 -0.04 0.1 -0.06 l0.06 0 c-0.04 0.08 -0.14 0.1 -0.22 0.14 c0 -0.04 0.1 -0.08 0 -0.08 c-0.04 0.08 -0.08 0.2 -0.2 0.1 c-0.02 0.06 -0.08 0.16 0 0.16 c1.08 -0.56 2.12 -1.3 2.82 -2.2 c-0.78 0.66 -1.5 1.36 -2.4 1.88 z M11.8 17.58 c-0.08 0.12 0.14 0.04 0 0 l0 0 z M11.64 17.740000000000002 c0.02 0.04 0.16 -0.04 0.08 -0.08 c0 0.06 -0.1 0 -0.08 0.08 z M11.52 17.86 c-0.06 -0.02 -0.1 0.08 -0.06 0.08 c0 -0.04 0.06 -0.02 0.06 -0.08 c0.02 0 0.02 0.02 0.04 0.02 c0.02 -0.02 0.02 -0.04 0.02 -0.08 c-0.04 0 -0.06 0.02 -0.06 0.06 z M11.64 17.92 c0 0.02 -0.02 0 0 0 l0 0 z M11.06 18.24 c-0.06 0.08 0.08 -0.06 0 0 l0 0 z M10.98 18.3 c0.02 0.02 0 0 0 0 l0 0 z M11.8 18.3 c0.12 0.04 0.02 -0.06 0 0 l0 0 z M11.7 18.38 c0.1 0.02 0 -0.08 0 0 l0 0 z M13.84 19.1 c0.02 0.02 -0.02 0 0 0 l0 0 z M8.82 19.14 c0.1 0.04 0 -0.06 0 0 l0 0 z M8.8 19.26 c-0.04 0.06 -0.14 0.18 -0.1 0.22 c0.04 -0.06 0.1 -0.1 0.1 -0.22 c0.04 0 0 -0.02 0 0 z M13.56 19.58 c0.04 -0.02 0.12 -0.02 0.14 -0.08 c-0.08 0 -0.16 0 -0.14 0.08 z M8.68 19.56 c-0.06 0.08 0.08 -0.06 0 0 l0 0 z M13.6 19.66 c0.08 -0.04 0.18 -0.04 0.2 -0.12 c-0.08 0.02 -0.16 0.04 -0.2 0.12 z M8.68 19.66 c0.04 -0.08 -0.1 -0.08 -0.1 -0.04 c0.04 0 0.06 0.04 0.1 0.04 z M16.6 17.46 c0.06 0.04 -0.02 0.12 -0.08 0.1 c0.02 -0.04 0.08 -0.04 0.08 -0.1 z M16.560000000000002 17.64 c0.02 0.08 -0.14 0.12 -0.12 0.02 c0.04 0.02 0.04 -0.04 0.12 -0.02 z M16.32 17.68 c0.02 -0.08 0.02 0.1 0 0 l0 0 z M14.08 19.36 c0 0.06 -0.08 0.04 -0.08 0.08 c-0.06 -0.02 0.04 -0.08 0.08 -0.08 z M23.1 15.8 c-0.08 -0.06 -0.18 -0.12 -0.28 -0.16 c-0.64 0.26 -1.08 0.82 -1.64 1.04 c-0.04 0.18 -0.12 0.32 -0.28 0.36 c-0.6 0.84 -1.2 1.66 -1.68 2.6 c-0.06 0.46 -0.28 0.74 -0.66 0.88 c-1 -0.46 -0.42 -2.04 -0.32 -2.94 c0.2 -0.46 0.22 -1.16 0.44 -1.52 c0.88 0.2 0.52 1.14 0.42 1.78 c0.46 -0.7 1.04 -1.28 1.62 -1.88 c0.54 -0.46 1.9 -1.1 2.38 -0.16 z M21.62 15.66 c0.14 0.02 0.14 -0.1 0.24 -0.06 c-0.06 -0.14 0.16 -0.02 0.18 -0.16 c-0.14 0.04 -0.26 0.06 -0.32 0.04 c-1.1 0.64 -1.98 1.68 -2.58 2.8 c0.7 -1 1.46 -1.94 2.48 -2.62 z M22.1 15.46 c0.02 0.02 -0.02 0 0 0 l0 0 z M22.200000000000003 15.64 c0 0.04 -0.02 0.06 -0.04 0.08 c0.08 -0.02 0.18 -0.02 0.2 -0.12 c-0.06 0.02 -0.1 0.04 -0.16 0.04 z M22 15.82 c0.08 0 0.1 -0.06 0.14 -0.1 c-0.08 -0.04 -0.2 0 -0.14 0.1 z M21.44 16.12 c0.18 -0.02 0.3 -0.24 0.46 -0.24 c-0.02 -0.06 0.08 -0.14 -0.02 -0.12 c-0.12 0.14 -0.32 0.22 -0.44 0.36 z M21.720000000000002 16.04 c-0.06 0.08 0.08 -0.06 0 0 l0 0 z M21.28 16.28 c0.06 -0.04 0.14 -0.06 0.16 -0.14 c-0.06 0.04 -0.22 0.06 -0.16 0.14 z M21.020000000000003 16.62 c0.04 -0.08 0.16 -0.1 0.16 -0.22 l-0.06 0 c0.02 0.12 -0.18 0.14 -0.1 0.22 z M20.82 16.78 c0 0 0 -0.02 0.02 -0.02 c0 -0.02 0 -0.06 -0.04 -0.04 c0 0.02 0 0.06 0.02 0.06 z M21.62 15.66 c-0.02 0 -0.04 -0.02 0 -0.02 l0 0.02 z M20.92 16.08 l0 0 c0.02 0.02 -0.02 0 0 0 z M18.12 16.62 c0 -0.08 0.1 0.02 0 0 l0 0 z M28.14 15.66 c-0.06 0.34 0 0.56 -0.32 0.74 c-0.24 0.6 -0.82 0.88 -1.26 1.28 c-0.38 0.08 -0.84 0.34 -1.2 0.08 c-0.22 0.3 -0.24 0.66 -0.34 1.1 c0.82 0.58 2.02 -0.18 2.86 -0.44 c0.46 -0.26 0.96 -0.52 1.48 -0.74 c0.06 -0.08 0.18 -0.1 0.24 -0.16 c0.06 0.18 -0.36 0.28 -0.5 0.42 c0 0.04 0.04 0.02 0.08 0.02 c-0.56 0.5 -1.18 0.8 -1.92 1.06 c0.14 0 0.44 0 0.62 -0.1 c-0.02 0.1 -0.1 0.12 -0.18 0.16 c0 0.04 0.12 -0.02 0.08 0.06 c-0.24 0.08 -0.46 0.32 -0.58 0.24 c-0.1 0.04 -0.02 0.08 -0.06 0.14 c-0.54 0.24 -0.9 0.4 -1.6 0.4 c-0.96 -0.2 -1.08 -1.14 -0.96 -2 c0.36 -1.1 1.14 -2.32 2.24 -2.86 c0.2 -0.1 0.44 -0.06 0.64 -0.06 c0.16 0.02 0.2 0.14 0.34 0.16 c0.04 0.24 0.2 0.36 0.34 0.5 z M26.58 16.02 c0.08 0.02 0.14 -0.14 0.2 -0.06 c-0.34 0.26 -0.64 0.54 -0.9 0.88 c0.66 -0.34 1.26 -0.74 1.64 -1.34 c-0.34 0.14 -0.74 0.24 -0.94 0.52 z M26.46 16.1 c0.02 0.02 0 -0.02 0 0 l0 0 z M26.3 19.2 c0.06 0.02 0.14 -0.04 0.12 0.12 c0.1 -0.06 0.16 -0.1 0.26 0 c0.04 -0.04 -0.04 -0.12 0.04 -0.12 c0.14 0 0.38 -0.1 0.5 -0.18 c-0.3 0.16 -0.68 0.06 -0.92 0.18 z M29.68 17.48 l0 0 c0.04 0 0 -0.02 0 0 z M29.68 17.48 c0 0.04 -0.04 0.02 0 0 l0 0 z M27.82 19.04 c0.04 -0.08 0.04 0.1 0 0 l0 0 z M34.96 15.48 c0.02 0.04 0.06 0.06 0.06 0.12 c0.2 -0.02 0.3 0.06 0.42 0.12 c0 0.02 -0.04 0.02 -0.06 0.02 c0.18 0.18 0.42 0.44 0.3 0.72 c0.02 0.06 0.1 -0.08 0.16 0 c0 0.08 -0.06 0.1 -0.04 0.2 c-0.04 0.02 -0.06 -0.02 -0.14 0.02 c0.08 0.04 0.04 0.22 0.1 0.14 c0.08 0.08 -0.08 0.16 -0.1 0.22 c0.06 0 0.06 -0.04 0.12 -0.02 c-0.16 0.16 -0.1 0.4 -0.26 0.6 c0 0.02 0.06 0.02 0.1 0.02 c-0.22 0.54 -0.1 1.06 0.1 1.44 c-0.08 0.12 -0.18 0.02 -0.28 0.04 c-0.92 -0.7 -0.22 -1.98 -0.38 -3.1 c-0.32 0.2 -0.44 0.58 -0.74 0.78 c-0.22 0.44 -0.48 0.88 -0.8 1.24 c-0.38 0.62 -0.62 1.48 -1.46 1.56 c-0.6 -0.26 -0.44 -1.18 -0.18 -1.7 c0.12 -0.62 0.36 -1.14 0.56 -1.68 c0.26 0.02 0.62 0.02 0.8 0.28 c-0.1 0.3 -0.26 0.52 -0.34 0.82 c0.24 -0.16 0.32 -0.5 0.56 -0.66 c0.38 -0.52 0.66 -1.34 1.5 -1.18 z M34.52 15.7 l0.06 0 c0 -0.06 -0.02 -0.06 -0.06 -0.06 l0 0.06 z M34.800000000000004 15.7 c0.02 0 -0.02 -0.02 0 0 l0 0 z M34.660000000000004 15.780000000000001 c-0.14 0.1 -0.16 0.32 -0.34 0.36 c0 -0.02 -0.02 -0.02 -0.02 -0.04 c0 -0.06 0.08 -0.06 0.14 -0.08 c0 -0.06 0.08 -0.16 0.02 -0.2 c-0.02 0.06 -0.04 -0.04 -0.1 0 c-0.08 0.18 -0.26 0.22 -0.44 0.26 c-0.02 0.08 0.06 0.04 0.06 0.1 c-0.04 0 -0.08 0.04 -0.1 0.08 c-0.12 -0.02 -0.14 0.1 -0.18 0.16 c0.1 -0.04 0.24 -0.04 0.18 0.06 c-0.06 -0.06 -0.12 -0.02 -0.24 -0.02 c0 0.06 0.02 0.16 -0.06 0.12 c-0.02 0.12 0.1 0.08 0.12 0.16 c-0.06 0.02 -0.06 -0.04 -0.12 -0.02 c-0.02 0.06 -0.06 0.1 -0.08 0.14 c0.14 0.06 0.06 -0.1 0.18 -0.06 c-0.04 0.06 -0.04 0.14 -0.1 0.16 c0 -0.04 -0.08 -0.02 -0.1 -0.04 c-0.02 0.06 0.04 0.16 0 0.16 c-0.04 -0.02 -0.1 -0.08 -0.12 0 c0.14 0.04 0.06 0.1 0.02 0.2 c0.26 -0.02 0.14 -0.38 0.46 -0.34 c0.02 -0.06 0.06 -0.12 0.14 -0.12 c-0.04 -0.14 0.14 -0.2 0.24 -0.26 c0.06 -0.38 0.46 -0.54 0.54 -0.82 c-0.08 -0.02 -0.06 0.04 -0.1 0.04 l0 -0.06 c-0.08 0.04 -0.1 -0.04 -0.12 0.04 c0.02 0.02 0.06 0.04 0.12 0.02 z M34.480000000000004 15.76 c0.02 0.02 0 0 0 0 l0 0 z M34.42 16.240000000000002 c0.02 0.02 -0.02 0 0 0 l0 0 z M33.46 16.78 c0.1 0.02 0 -0.08 0 0 l0 0 z M33.34 17.38 c0.12 -0.02 0.02 -0.1 -0.02 -0.12 c-0.02 0.04 0.04 0.04 0.02 0.12 z M33.220000000000006 17.44 c0.04 0.08 0.06 -0.08 0 0 l0 0 z M35.24 17.62 c0.06 0.04 0.06 -0.12 0.02 -0.1 c0 0.04 -0.04 0.04 -0.02 0.1 z M35.24 17.759999999999998 l0 0.04 c0.06 0.04 0.06 -0.08 0.02 -0.06 c0 0 0 0.02 -0.02 0.02 z M35.160000000000004 17.98 c0.08 0 0.1 -0.06 0.12 -0.12 c-0.06 0 -0.14 0.02 -0.12 0.12 z M35.160000000000004 18.12 c0.06 0 0.1 -0.1 0.02 -0.1 c0 0.04 -0.02 0.06 -0.02 0.1 z M33.88 16.259999999999998 c-0.04 0.18 0.26 0.08 0.22 -0.08 c-0.06 0 -0.1 0.04 -0.1 0.12 c-0.06 0 -0.04 -0.06 -0.12 -0.04 z M34.32 16.18 c-0.08 0.04 -0.1 0.12 -0.16 0.16 c0.02 -0.08 0.06 -0.16 0.16 -0.16 z M34.120000000000005 16.38 c0.02 0.1 -0.1 0.16 -0.14 0.12 c0.06 -0.02 0.06 -0.12 0.14 -0.12 z M33.84 16.58 c-0.02 0.04 -0.04 0.08 -0.12 0.08 c0 -0.1 0.04 -0.12 0.12 -0.08 z M33.88 16.68 l0.06 0 l0 0.04 l-0.06 0 l0 -0.04 z M33.82 16.72 c0.1 0 0 0.18 -0.08 0.18 c-0.02 -0.1 0.1 -0.08 0.08 -0.18 z M35.760000000000005 16.740000000000002 c0.02 -0.08 0.02 0.1 0 0 l0 0 z M49.50000000000001 17.44 c1.04 -0.2 2.1 -0.58 2.98 -1 c0.08 0.02 0.18 -0.02 0.24 0.04 c-0.04 0.14 0.02 0.2 0.06 0.28 c-0.28 0.16 -0.54 0.34 -0.84 0.48 c-0.02 -0.06 0 -0.06 -0.02 -0.14 c-0.04 0.06 -0.1 0.1 -0.14 0 c-0.06 0.02 -0.06 0.1 -0.1 0.14 c0 0.02 0.04 0.02 0.04 0.04 c0.08 0.04 0.06 -0.04 0.06 -0.08 c0.2 0.1 -0.1 0.12 -0.12 0.24 c-0.08 0 -0.04 -0.08 -0.12 -0.06 c-0.12 0.02 0 0.18 -0.06 0.2 c-0.08 0.02 -0.04 -0.14 -0.02 -0.14 c-0.12 0.04 -0.16 0.14 -0.26 0.2 c-0.08 0.02 -0.04 -0.06 -0.1 -0.06 c-0.04 0 -0.04 0.06 -0.04 0.12 c-0.08 0.02 -0.04 -0.08 -0.08 -0.1 c-0.06 0 -0.1 0.1 -0.16 0.02 c-0.08 0.04 0.06 0.06 0.04 0.12 c-0.1 -0.06 -0.14 0.04 -0.26 -0.04 c-0.02 0.1 0.14 0.02 0.12 0.12 c-0.08 0 -0.1 0.02 -0.16 0 l0 -0.1 c-0.12 0.02 -0.12 0.02 -0.22 0.02 c-0.02 0.08 -0.02 0.1 -0.1 0.02 c-0.06 0.06 0.06 0.06 0.02 0.16 c-0.34 0.1 -1.2 0.06 -1.22 0.54 c-0.46 0.62 -0.74 1.5 -1.7 1.52 c-1.34 -0.28 -1.14 -2.38 -0.32 -3.06 c0 -0.1 0.02 -0.18 -0.02 -0.26 c0.14 -1.44 1.92 -1.26 2.54 -0.38 c0.18 0.38 0.16 0.8 -0.04 1.16 z M48.68000000000001 16.04 c-0.36 0.26 -0.98 0.4 -0.82 1 c-0.12 0.1 -0.26 0.24 -0.26 0.4 c0.26 0.14 0.72 0.18 1.04 0.14 c0.18 -0.48 0.52 -1.16 0.04 -1.54 z M49.24 16.66 c0 0.02 -0.02 0 0 0 l0 0 z M52.24 16.96 c0.02 0.08 0.02 -0.1 0 0 l0 0 z M51.96000000000001 17.1 c0.1 0.02 0.02 -0.08 0 0 l0 0 z M51.60000000000001 17.259999999999998 c-0.02 -0.06 0.04 -0.06 0.04 -0.12 c-0.14 -0.02 -0.12 0.12 -0.04 0.12 z M51.46000000000001 17.34 c0.06 0 0.1 0 0.1 -0.06 c-0.04 0 -0.04 -0.04 -0.08 -0.04 c0 0.04 -0.02 0.04 -0.02 0.1 z M51.32000000000001 17.32 l0.08 0 c0 -0.06 -0.04 -0.06 -0.08 -0.06 l0 0.06 z M50.74 17.46 c0.2 -0.04 0.4 0.02 0.6 -0.08 c-0.14 -0.02 -0.28 0 -0.4 -0.06 c0.02 0.12 -0.18 0.04 -0.2 0.14 z M49.14000000000001 17.5 c0.02 0.02 -0.02 0 0 0 l0 0 z M50.24 17.52 c0 0.18 0.3 0.1 0.36 0.04 c-0.14 -0.1 -0.22 0 -0.36 -0.04 z M50.120000000000005 17.62 c-0.12 -0.02 0.02 0.12 0.02 0.02 l0.08 0 c0 -0.06 -0.04 -0.08 -0.1 -0.06 l0 0.04 z M49.900000000000006 17.68 c-0.04 -0.02 -0.04 -0.08 -0.12 -0.06 c-0.04 0.1 0.12 0.14 0.12 0.06 z M47.28 17.7 c-0.18 0.44 -0.54 1.04 -0.28 1.68 c0.72 -0.12 0.98 -0.68 1.3 -1.2 c-0.44 -0.06 -0.72 -0.28 -1.02 -0.48 z M49.720000000000006 17.72 c0 0.02 -0.02 -0.02 0 0 l0 0 z M50.1 17.84 c0.08 0.08 0.04 -0.08 0 0 l0 0 z M49.88 17.88 c-0.02 0 -0.12 -0.04 -0.12 0 c0.04 0.04 0.1 0.1 0.12 0 z M49.900000000000006 17.88 c0.1 0.04 0.02 -0.06 0 0 l0 0 z M50.02 17.88 c0.02 0.04 0.04 0 0 0 c0 -0.02 -0.02 0.02 0 0 z M49.720000000000006 17.92 c0.06 0.08 0.02 -0.08 0 0 l0 0 z M49.56 17.96 c-0.02 0 -0.02 -0.04 -0.06 -0.02 c-0.04 0.06 0.08 0.06 0.06 0.02 z M50.120000000000005 17.62 c0.02 0 0.02 0 0.02 0.02 c0 0 -0.02 0 -0.02 -0.02 z"></path></g></svg>