<svg width="218.51647819629025" height="231" viewBox="0 -6 200.00000000000003 211.4257029096872" ><defs id="SvgjsDefs3120"></defs><g id="SvgjsG3121" featurekey="tOsHRK-0" transform="matrix(2.89499675839731,0,0,2.89499675839731,-48.24839121662092,-121.43510233460356)" fill="#ffffff"><g xmlns="http://www.w3.org/2000/svg"><polygon points="37.876,59.597 35.319,57.04 42.625,49.734 35.319,42.431 37.876,39.874 47.738,49.734  "></polygon></g><g xmlns="http://www.w3.org/2000/svg"><rect x="48.182" y="56.51" width="16.498" height="3.617"></rect></g></g><g id="SvgjsG3122" featurekey="dVtZHI-0" transform="matrix(8.032128637108993,0,0,8.032128637108993,0.000001436256522615372,44.78313016750734)" fill="#f08a5d"><path d="M2.56 13.36 l3.96 6.64 l0.78 0 l-4.34 -7.28 z M2.64 12.14 l4.48 -7.84 l-0.8 0 l-5.64 9.94 l0 -9.98 l-0.68 0 l0 11.24 l0.68 0 l0 -0.02 l1.54 -2.68 z M16.9 20 c2.2134 0 4.1 -0.78 5.66 -2.34 c0.77334 -0.76 1.3567 -1.58 1.75 -2.46 s0.59 -1.88 0.59 -3 c0 -2.2266 -0.78 -4.1066 -2.34 -5.64 c-1.56 -1.52 -3.4866 -2.2866 -5.78 -2.3 c-1.4133 0.01334 -2.74 0.36668 -3.98 1.06 c-1.2133 0.70666 -2.18 1.6867 -2.9 2.94 l0.58 0.32 c0.65334 -1.16 1.54 -2.06 2.66 -2.7 c1.1067 -0.64 2.32 -0.96666 3.64 -0.98 c2.1334 0.01334 3.9066 0.72668 5.32 2.14 c1.4133 1.3867 2.1266 3.1066 2.14 5.16 c0 1.0267 -0.18 1.9433 -0.54 2.75 s-0.88666 1.5633 -1.58 2.27 c-1.4267 1.4267 -3.1666 2.14 -5.22 2.14 c-1.28 0 -2.44 -0.27334 -3.48 -0.82 l-0.3 0.58 c1.1333 0.58666 2.3934 0.88 3.78 0.88 z"></path></g></svg>