<?xml version="1.0" encoding="UTF-8" standalone="no"?>
<!DOCTYPE svg PUBLIC "-//W3C//DTD SVG 1.1//EN" "http://www.w3.org/Graphics/SVG/1.1/DTD/svg11.dtd">
<svg version="1.1" xmlns="http://www.w3.org/2000/svg" xmlns:xlink="http://www.w3.org/1999/xlink" preserveAspectRatio="xMidYMid meet" viewBox="0 0 640 640" width="640" height="640"><defs><path d="M326.78 327.95L341.49 313.68L326.78 299.42L331.93 294.42L351.78 313.68L331.93 332.94L326.78 327.95Z" id="cxkwdDddd"></path><path d="M387.97 325.97C387.97 325.97 387.97 325.97 387.97 325.97C387.97 329.64 387.97 331.68 387.97 332.08C387.97 332.08 387.97 332.08 387.97 332.08C368.77 332.08 358.1 332.08 355.97 332.08C355.97 332.08 355.97 332.08 355.97 332.08C355.97 328.42 355.97 326.38 355.97 325.97C355.97 325.97 355.97 325.97 355.97 325.97C375.17 325.97 385.83 325.97 387.97 325.97Z" id="e2zSurz7al"></path><path d="M233.41 317.04L268.08 375.17L274.91 375.17L236.91 311.43L233.41 317.04ZM234.11 306.36L273.34 237.72L266.33 237.72L216.95 324.74L216.95 237.37L211 237.37L211 335.77L216.95 335.77L216.95 335.6L230.44 312.14L234.11 306.36ZM408.51 354.68C415.28 348.03 420.39 340.85 423.83 333.15C427.28 325.44 429 316.69 429 306.88C429 287.39 422.17 270.93 408.51 257.5C394.86 244.2 377.99 237.48 357.91 237.37C345.54 237.48 333.92 240.58 323.06 246.65C312.44 252.83 303.98 261.41 297.67 272.39C298.18 272.67 302.24 274.91 302.75 275.19C308.47 265.03 316.24 257.15 326.04 251.55C335.73 245.95 346.35 243.09 357.91 242.97C376.59 243.09 392.11 249.33 404.49 261.71C416.86 273.85 423.1 288.9 423.22 306.88C423.22 315.87 421.65 323.9 418.49 330.96C415.34 338.02 410.73 344.65 404.66 350.83C392.17 363.32 376.94 369.57 358.96 369.57C347.75 369.57 337.6 367.18 328.49 362.39C328.23 362.9 326.13 366.96 325.87 367.47C335.79 372.6 346.82 375.17 358.96 375.17C378.34 375.17 394.86 368.34 408.51 354.68Z" id="aUpBnUqUE"></path><path d="" id="d68XDZSAkT"></path></defs><g><g><g><use xlink:href="#cxkwdDddd" opacity="1" fill="#ffffff" fill-opacity="1"></use><g><use xlink:href="#cxkwdDddd" opacity="1" fill-opacity="0" stroke="#000000" stroke-width="1" stroke-opacity="0"></use></g></g><g><use xlink:href="#e2zSurz7al" opacity="1" fill="#ffffff" fill-opacity="1"></use><g><use xlink:href="#e2zSurz7al" opacity="1" fill-opacity="0" stroke="#000000" stroke-width="1" stroke-opacity="0"></use></g></g><g><use xlink:href="#aUpBnUqUE" opacity="1" fill="#f9f9f9" fill-opacity="1"></use><g><use xlink:href="#aUpBnUqUE" opacity="1" fill-opacity="0" stroke="#000000" stroke-width="1" stroke-opacity="0"></use></g></g><g><g><use xlink:href="#d68XDZSAkT" opacity="1" fill-opacity="0" stroke="#000000" stroke-width="1" stroke-opacity="1"></use></g></g></g></g></svg>