<svg width="215.00000000000003" height="72.38107975592638" viewBox="0 0 215.00000000000003 72.38107975592638" ><defs id="SvgjsDefs1891"></defs><g id="SvgjsG1892" featurekey="tOsHRK-0" transform="matrix(0.4443282730999358,0,0,0.4443282730999358,-14.351802882132356,-20.661264699147015)" fill="#b83b5e"><g xmlns="http://www.w3.org/2000/svg"><path d="M84.5,82.1c9,0,16.4-6.7,17.6-15.4h30.4l13,18.8c0.5,0.7,1.2,1,2,1h73.7c1.3,0,2.4-1.1,2.4-2.4c0-1.3-1.1-2.4-2.4-2.4   h-72.5l-13-18.8c-0.5-0.7-1.2-1-2-1H102c-1.2-8.7-8.6-15.4-17.6-15.4c-9.8,0-17.8,8-17.8,17.8S74.7,82.1,84.5,82.1z M84.5,51.4   c7.1,0,12.9,5.8,12.9,12.9c0,0,0,0,0,0c0,0,0,0,0,0c0,7.1-5.8,12.9-12.9,12.9c-7.1,0-12.9-5.8-12.9-12.9S77.3,51.4,84.5,51.4z"></path><path d="M221.2,109.5h-76.7c-1.2-8.7-8.6-15.4-17.6-15.4c-9.8,0-17.8,8-17.8,17.8s8,17.8,17.8,17.8c9,0,16.4-6.7,17.6-15.4h76.7   c1.3,0,2.4-1.1,2.4-2.4C223.6,110.6,222.5,109.5,221.2,109.5z M126.9,124.9c-7.1,0-12.9-5.8-12.9-12.9S119.8,99,126.9,99   c7.1,0,12.9,5.8,12.9,12.9c0,0,0,0,0,0s0,0,0,0C139.8,119.1,134,124.9,126.9,124.9z"></path><path d="M221.2,140.3h-66.9c-0.8,0-1.6,0.4-2.1,1.1l-9.4,15h-41.2l-10.2-19c-0.4-0.8-1.2-1.3-2.1-1.3H67.7   c-1.2-8.7-8.6-15.4-17.6-15.4c-9.8,0-17.8,8-17.8,17.8s8,17.8,17.8,17.8c9,0,16.4-6.7,17.6-15.4h20.1l10.2,19   c0.4,0.8,1.2,1.3,2.1,1.3h44c0.8,0,1.6-0.4,2.1-1.1l9.4-15h65.5c1.3,0,2.4-1.1,2.4-2.4C223.6,141.4,222.5,140.3,221.2,140.3z    M50.1,151.6c-7.1,0-12.9-5.8-12.9-12.9s5.8-12.9,12.9-12.9c7.1,0,12.9,5.8,12.9,12.9c0,0,0,0,0,0s0,0,0,0   C63.1,145.8,57.3,151.6,50.1,151.6z"></path><path d="M221.2,168.6h-38.6c-0.9,0-1.7,0.5-2.1,1.2l-11.4,19.4h-58.2c-1.2-8.7-8.6-15.4-17.6-15.4c-9.8,0-17.8,8-17.8,17.8   c0,9.8,8,17.8,17.8,17.8c9,0,16.4-6.7,17.6-15.4h59.6c0.9,0,1.7-0.5,2.1-1.2l11.4-19.4h37.2c1.3,0,2.4-1.1,2.4-2.4   C223.6,169.7,222.5,168.6,221.2,168.6z M93.3,204.6c-7.1,0-12.9-5.8-12.9-12.9c0-7.1,5.8-12.9,12.9-12.9c7.1,0,12.9,5.8,12.9,12.9   C106.3,198.8,100.5,204.6,93.3,204.6z"></path></g></g><g id="SvgjsG1893" featurekey="dVtZHI-0" transform="matrix(4.417670750409947,0,0,4.417670750409947,105.00000078994108,-17.819278407870964)" fill="#ffffff"><path d="M2.56 13.36 l3.96 6.64 l0.78 0 l-4.34 -7.28 z M2.64 12.14 l4.48 -7.84 l-0.8 0 l-5.64 9.94 l0 -9.98 l-0.68 0 l0 11.24 l0.68 0 l0 -0.02 l1.54 -2.68 z M16.9 20 c2.2134 0 4.1 -0.78 5.66 -2.34 c0.77334 -0.76 1.3567 -1.58 1.75 -2.46 s0.59 -1.88 0.59 -3 c0 -2.2266 -0.78 -4.1066 -2.34 -5.64 c-1.56 -1.52 -3.4866 -2.2866 -5.78 -2.3 c-1.4133 0.01334 -2.74 0.36668 -3.98 1.06 c-1.2133 0.70666 -2.18 1.6867 -2.9 2.94 l0.58 0.32 c0.65334 -1.16 1.54 -2.06 2.66 -2.7 c1.1067 -0.64 2.32 -0.96666 3.64 -0.98 c2.1334 0.01334 3.9066 0.72668 5.32 2.14 c1.4133 1.3867 2.1266 3.1066 2.14 5.16 c0 1.0267 -0.18 1.9433 -0.54 2.75 s-0.88666 1.5633 -1.58 2.27 c-1.4267 1.4267 -3.1666 2.14 -5.22 2.14 c-1.28 0 -2.44 -0.27334 -3.48 -0.82 l-0.3 0.58 c1.1333 0.58666 2.3934 0.88 3.78 0.88 z"></path></g></svg>